<?xml version="1.0" encoding="UTF-8"?>
<!--Generator: Apple Native CoreSVG 360-->
<!DOCTYPE svg
PUBLIC "-//W3C//DTD SVG 1.1//EN"
       "http://www.w3.org/Graphics/SVG/1.1/DTD/svg11.dtd">
<svg version="1.1" xmlns="http://www.w3.org/2000/svg" xmlns:xlink="http://www.w3.org/1999/xlink" viewBox="0 0 18.3398 17.9785">
 <g>
  <rect height="17.9785" opacity="0" width="18.3398" x="0" y="0"/>
  <path d="M11.6699 17.9785L16.1133 17.9785C17.3535 17.9785 17.9785 17.3633 17.9785 16.0742L17.9785 11.709C17.9785 10.4199 17.3535 9.80469 16.1133 9.80469L11.6699 9.80469C10.4199 9.80469 9.79492 10.4199 9.79492 11.709L9.79492 16.0742C9.79492 17.3633 10.4199 17.9785 11.6699 17.9785ZM11.6895 16.6016C11.3379 16.6016 11.1719 16.4258 11.1719 16.084L11.1719 11.709C11.1719 11.3574 11.3379 11.1816 11.6895 11.1816L16.0938 11.1816C16.4355 11.1816 16.6016 11.3574 16.6016 11.709L16.6016 16.084C16.6016 16.4258 16.4355 16.6016 16.0938 16.6016Z" fill="white" fill-opacity="0.85"/>
  <path d="M1.86523 17.9785L6.31836 17.9785C7.55859 17.9785 8.18359 17.3633 8.18359 16.0742L8.18359 11.709C8.18359 10.4199 7.55859 9.80469 6.31836 9.80469L1.86523 9.80469C0.625 9.80469 0 10.4199 0 11.709L0 16.0742C0 17.3633 0.625 17.9785 1.86523 17.9785ZM1.88477 16.6016C1.54297 16.6016 1.37695 16.4258 1.37695 16.084L1.37695 11.709C1.37695 11.3574 1.54297 11.1816 1.88477 11.1816L6.28906 11.1816C6.63086 11.1816 6.80664 11.3574 6.80664 11.709L6.80664 16.084C6.80664 16.4258 6.63086 16.6016 6.28906 16.6016Z" fill="white" fill-opacity="0.85"/>
  <path d="M11.6699 8.18359L16.1133 8.18359C17.3535 8.18359 17.9785 7.56836 17.9785 6.2793L17.9785 1.9043C17.9785 0.625 17.3535 0 16.1133 0L11.6699 0C10.4199 0 9.79492 0.625 9.79492 1.9043L9.79492 6.2793C9.79492 7.56836 10.4199 8.18359 11.6699 8.18359ZM11.6895 6.80664C11.3379 6.80664 11.1719 6.63086 11.1719 6.26953L11.1719 1.9043C11.1719 1.55273 11.3379 1.37695 11.6895 1.37695L16.0938 1.37695C16.4355 1.37695 16.6016 1.55273 16.6016 1.9043L16.6016 6.26953C16.6016 6.63086 16.4355 6.80664 16.0938 6.80664Z" fill="white" fill-opacity="0.85"/>
  <path d="M1.86523 8.18359L6.31836 8.18359C7.55859 8.18359 8.18359 7.56836 8.18359 6.2793L8.18359 1.9043C8.18359 0.625 7.55859 0 6.31836 0L1.86523 0C0.625 0 0 0.625 0 1.9043L0 6.2793C0 7.56836 0.625 8.18359 1.86523 8.18359ZM1.88477 6.80664C1.54297 6.80664 1.37695 6.63086 1.37695 6.26953L1.37695 1.9043C1.37695 1.55273 1.54297 1.37695 1.88477 1.37695L6.28906 1.37695C6.63086 1.37695 6.80664 1.55273 6.80664 1.9043L6.80664 6.26953C6.80664 6.63086 6.63086 6.80664 6.28906 6.80664Z" fill="white" fill-opacity="0.85"/>
 </g>
</svg>
