<?xml version="1.0" encoding="UTF-8"?>
<!-- Generator: Adobe Illustrator 24.1.1, SVG Export Plug-In . SVG Version: 6.00 Build 0)  -->
<svg version="1.1" id="Layer_1" xmlns="http://www.w3.org/2000/svg" xmlns:xlink="http://www.w3.org/1999/xlink" x="0px" y="0px" viewBox="0 0 512 512" style="enable-background:new 0 0 512 512;" xml:space="preserve">
<style type="text/css">
	.st0{fill:#95A5A6;}
	.st1{fill:#7F8C8D;}
	.st2{fill:#BDC3C7;}
	.st3{fill:#34495E;}
	.st4{fill:#2C3E50;}
</style>
<g id="XMLID_1_">
	<rect id="XMLID_3_" y="394.6" class="st0" width="512" height="21.3"/>
	<path id="XMLID_4_" class="st1" d="M85.1,96.1c-11.8,0-21.3,8.7-21.3,21.3v21.3v149.7v21.3v21.3v42.5h42.5h299.3h42.5v-42.5v-42.5   V138.6v-21.3c0-12.6-9.5-21.3-21.3-21.3h-21.3H128.4h-22.1H85.1z"/>
	<polygon id="XMLID_5_" class="st2" points="63.8,373.4 0,394.6 63.8,394.6 448.2,394.6 512,394.6 448.2,373.4  "/>
	<rect id="XMLID_6_" x="213.5" y="394.6" class="st1" width="85.1" height="21.3"/>
	<rect id="XMLID_7_" x="85.1" y="117.4" class="st3" width="341.1" height="234.7"/>
	<polygon id="XMLID_8_" class="st4" points="426.9,168.6 111.1,352.1 405.7,352.1 426.9,352.1 426.9,330.8  "/>
</g>
</svg>