<?xml version="1.0" encoding="UTF-8"?>
<svg version="1.1" id="圖層_1" xmlns="http://www.w3.org/2000/svg" x="0" y="0" viewBox="0 0 100 100" xml:space="preserve">
    <g>
        <path d="M65.877 57.503a4.234 4.234 0 0 1-4.234-4.234V26.102c0-4.669-3.799-8.468-8.468-8.468h-6.352c-4.669 0-8.468 3.799-8.468 8.468V53.27a4.234 4.234 0 1 1-8.468 0V26.102c0-9.338 7.597-16.935 16.935-16.935h6.352c9.338 0 16.935 7.597 16.935 16.935V53.27a4.23 4.23 0 0 1-4.232 4.233z" fill="white"/>
    </g>
    <path d="M71.875 87.563h-43.75a9.584 9.584 0 0 1-9.584-9.584V43.218a9.584 9.584 0 0 1 9.584-9.584h43.749a9.584 9.584 0 0 1 9.584 9.584v34.761c.001 5.293-4.29 9.584-9.583 9.584z" fill="white"/>
</svg>
