<?xml version="1.0" encoding="windows-1252"?>
<!-- Uploaded to: SVG Repo, www.svgrepo.com, Generator: SVG Repo Mixer Tools -->
<svg height="800px" width="800px" version="1.1" id="Layer_1" xmlns="http://www.w3.org/2000/svg" xmlns:xlink="http://www.w3.org/1999/xlink" viewBox="0 0 503.497 503.497" xml:space="preserve">
<circle style="fill:#E4F2DE;" cx="251.658" cy="251.764" r="247.467"/>
<path style="fill:#51565F;" d="M259.338,503.497c-0.853,0-1.707,0-2.56-0.853c-1.707-1.707-2.56-4.267-0.853-5.973  c30.72-45.227,50.347-97.28,56.32-151.893c0-2.56,2.56-4.267,5.12-3.413c2.56,0,4.267,2.56,3.413,5.12  c-5.973,55.467-26.453,109.227-58.027,155.307C261.898,502.644,261.045,503.497,259.338,503.497z M187.658,494.964  c-0.853,0-1.707,0-2.56-0.853c-1.707-1.707-1.707-4.267,0-5.973c57.173-64.853,80.213-151.04,63.147-235.52  c-0.853-2.56,0.853-4.267,3.413-5.12c2.56-0.853,4.267,0.853,5.12,3.413c17.92,87.04-5.973,175.787-64.853,242.347  C190.218,494.111,188.511,494.964,187.658,494.964z M340.405,486.431c-0.853,0-0.853,0-1.707-0.853  c-1.707-0.853-3.413-3.413-1.707-5.973c11.093-23.04,20.48-46.933,26.453-71.68c0.853-2.56,2.56-3.413,5.12-3.413  c2.56,0.853,3.413,2.56,3.413,5.12c-6.827,24.747-16.213,49.493-27.307,72.533C342.965,485.577,342.111,486.431,340.405,486.431z   M126.218,469.364c-0.853,0-2.56-0.853-3.413-1.707c-1.707-1.707-1.707-4.267,0-5.973c50.347-46.933,75.093-115.2,65.707-183.467  c0-2.56,1.707-4.267,3.413-5.12c2.56-0.853,4.267,1.707,5.12,3.413c9.387,70.827-16.213,141.653-68.267,191.147  C128.778,468.511,127.925,469.364,126.218,469.364z M76.725,430.964c-0.853,0-2.56-0.853-3.413-1.707  c-1.707-1.707-0.853-4.267,0.853-5.973c20.48-16.213,35.84-38.4,45.227-62.293c0.853-2.56,3.413-3.413,5.12-2.56  c2.56,0.853,3.413,3.413,2.56,5.12c-10.24,25.6-26.453,48.64-47.787,65.707C78.431,430.111,77.578,430.964,76.725,430.964z   M427.445,430.111h-0.853c-2.56-0.853-3.413-2.56-3.413-5.12c12.8-47.787,17.92-97.28,14.507-146.773  c0-2.56,1.707-4.267,4.267-4.267s4.267,1.707,4.267,4.267c3.413,50.347-1.707,100.693-14.507,149.333  C430.858,429.257,429.151,430.111,427.445,430.111z M38.325,382.324c-0.853,0-2.56-0.853-3.413-1.707  c-1.707-1.707-1.707-4.267,0.853-5.973c24.747-20.48,35.84-52.907,29.867-84.48v-0.853c-1.707-10.24-3.413-19.627-3.413-29.867  c0-2.56,1.707-4.267,4.267-4.267c2.56,0,4.267,1.707,4.267,4.267c0,9.387,1.707,18.773,3.413,28.16v0.853  c6.827,34.987-5.12,70.827-32.427,93.867C40.885,381.471,40.031,382.324,38.325,382.324z M375.391,376.351L375.391,376.351  c-3.413-0.853-4.267-2.56-4.267-5.12c7.68-47.787,6.827-95.573-2.56-143.36l0,0c-5.973-30.72-24.747-58.027-51.2-75.947  c-26.453-17.92-58.027-23.893-89.6-17.92c-31.573,5.973-58.027,24.747-75.947,51.2c-17.067,26.453-23.893,58.027-17.92,88.747v0.853  c3.413,16.213,4.267,32.427,2.56,48.64c0,2.56-2.56,4.267-5.12,3.413c-2.56,0-4.267-2.56-3.413-5.12  c1.707-14.507,0.853-29.867-1.707-44.373v-0.853c-6.827-33.28,0-67.413,18.773-96.427s47.787-47.787,81.067-54.613  c33.28-6.827,67.413,0,96.427,18.773c28.16,18.773,47.787,47.787,54.613,81.067l0,0c9.387,48.64,10.24,97.28,2.56,145.92  C379.658,374.644,377.951,376.351,375.391,376.351z M11.871,314.911c-1.707,0-3.413-1.707-4.267-3.413  c-0.853-3.413-1.707-6.827-2.56-9.387v-0.853c-11.093-56.32-3.413-113.493,22.187-163.84c0.853-1.707,3.413-2.56,5.973-1.707  c1.707,0.853,2.56,3.413,1.707,5.973C10.165,190.324,2.485,244.937,12.725,299.55v0.853c0.853,3.413,1.707,6.827,2.56,10.24  c0.853,2.56-0.853,4.267-3.413,5.12C11.871,314.911,11.871,314.911,11.871,314.911z M319.071,310.644  c-2.56,0-4.267-1.707-4.267-4.267c0-22.187-2.56-44.373-6.827-65.707v-0.853c-3.413-14.507-11.947-27.307-24.747-35.84  c-12.8-8.533-28.16-11.947-43.52-8.533c-23.04,4.267-40.107,22.187-45.227,44.373c-0.853,2.56-2.56,3.413-5.12,3.413  c-2.56-0.853-3.413-2.56-3.413-5.12c5.12-25.6,25.6-46.08,52.053-51.2c17.067-3.413,34.987,0,49.493,9.387  c14.507,9.387,24.747,24.747,28.16,41.813v0.853c4.267,22.187,6.827,44.373,6.827,66.56  C323.338,308.084,321.631,310.644,319.071,310.644L319.071,310.644z M499.125,261.151L499.125,261.151  c-2.56,0-4.267-1.707-4.267-4.267c0-17.067-0.853-34.987-4.267-52.053v-0.853c-11.947-61.44-47.787-115.2-98.987-151.04  c-1.707-1.707-2.56-4.267-0.853-5.973s4.267-2.56,5.973-0.853c52.907,36.693,88.747,92.16,101.547,155.307v0.853  c3.413,17.92,5.12,36.693,5.12,54.613C503.391,259.444,501.685,261.151,499.125,261.151z M437.685,243.231  c-1.707,0-4.267-1.707-4.267-3.413c-0.853-7.68-2.56-15.36-4.267-23.04c0,0,0,0,0-0.853c-9.387-47.787-36.693-88.747-77.653-115.2  C311.391,74.27,262.751,64.031,214.965,74.27c-74.24,14.507-129.707,72.533-142.507,146.773c0,2.56-2.56,4.267-5.12,3.413  c-2.56,0-4.267-2.56-3.413-5.12c13.653-77.653,72.533-138.24,149.333-153.6c49.493-10.24,100.693,0,142.507,28.16  s70.827,70.827,81.067,120.32c0,0,0,0,0,0.853c1.707,8.533,3.413,16.213,4.267,23.893  C441.951,240.671,440.245,243.231,437.685,243.231L437.685,243.231z M51.978,110.111c-0.853,0-1.707,0-2.56-0.853  c-1.707-1.707-2.56-4.267-0.853-5.973c37.547-51.2,91.307-86.187,153.6-98.133c54.613-11.093,110.08-4.267,160.427,20.48  c1.707,0.853,2.56,3.413,1.707,5.973c-0.853,1.707-3.413,3.413-5.973,1.707c-48.64-23.893-102.4-30.72-155.307-19.627  c-59.733,11.947-112.64,46.08-148.48,94.72C54.538,109.257,52.831,110.111,51.978,110.111z"/>
</svg>