<svg width="17" height="12" viewBox="0 0 17 12" fill="none" xmlns="http://www.w3.org/2000/svg">
<path d="M3.4375 11.0913C2.72135 11.0913 2.10547 10.9517 1.58984 10.6724C1.0778 10.3931 0.683919 10.0153 0.408203 9.53906C0.136068 9.06283 0 8.53288 0 7.94922C0 7.44792 0.10026 6.99137 0.300781 6.57959C0.501302 6.16423 0.778809 5.80973 1.1333 5.51611C1.49137 5.22249 1.90674 5.00586 2.37939 4.86621C2.44743 4.17155 2.63005 3.52881 2.92725 2.93799C3.22445 2.34717 3.61117 1.83154 4.0874 1.39111C4.56364 0.950684 5.10254 0.608724 5.7041 0.365234C6.30924 0.121745 6.9484 0 7.62158 0C8.33057 0 8.98405 0.119954 9.58203 0.359863C10.1836 0.596191 10.7171 0.936361 11.1826 1.38037C11.6517 1.8208 12.0402 2.34896 12.3481 2.96484C12.9819 2.96484 13.5638 3.06868 14.0938 3.27637C14.6273 3.48047 15.091 3.76514 15.4849 4.13037C15.8823 4.49561 16.1885 4.92529 16.4033 5.41943C16.6217 5.91357 16.731 6.44889 16.731 7.02539C16.731 7.59473 16.6253 8.12646 16.4141 8.62061C16.2028 9.11475 15.9056 9.54622 15.5225 9.91504C15.1393 10.2874 14.6935 10.5757 14.1851 10.7798C13.6802 10.9875 13.1323 11.0913 12.5415 11.0913H3.4375ZM3.4375 9.95801H12.5845C13.007 9.95801 13.4009 9.88281 13.7661 9.73242C14.1349 9.58561 14.4554 9.37972 14.7275 9.11475C14.9997 8.84977 15.2109 8.54183 15.3613 8.19092C15.5153 7.84001 15.5923 7.46224 15.5923 7.05762C15.5923 6.64941 15.5135 6.26807 15.356 5.91357C15.202 5.5555 14.9764 5.24398 14.6792 4.979C14.3856 4.71045 14.0275 4.50098 13.605 4.35059C13.1825 4.2002 12.7044 4.125 12.1709 4.125C11.9668 4.125 11.811 4.09456 11.7036 4.03369C11.5962 3.96924 11.5013 3.85645 11.4189 3.69531C11.1611 3.16178 10.8442 2.70524 10.4683 2.32568C10.0923 1.94255 9.66618 1.64893 9.18994 1.44482C8.7137 1.24072 8.19092 1.13867 7.62158 1.13867C7.08089 1.13867 6.57064 1.24251 6.09082 1.4502C5.61458 1.6543 5.19027 1.94255 4.81787 2.31494C4.44548 2.68734 4.1429 3.12419 3.91016 3.62549C3.68099 4.12679 3.54134 4.67643 3.49121 5.27441C3.47689 5.46419 3.43034 5.60563 3.35156 5.69873C3.27637 5.78825 3.14746 5.85628 2.96484 5.90283C2.38477 6.0568 1.93538 6.31283 1.6167 6.6709C1.29801 7.02897 1.13867 7.46403 1.13867 7.97607C1.13867 8.36637 1.22998 8.71012 1.4126 9.00732C1.59521 9.30452 1.8584 9.53727 2.20215 9.70557C2.5459 9.87386 2.95768 9.95801 3.4375 9.95801Z" fill="#0A99FF"/>
</svg>
